<svg xmlns="http://www.w3.org/2000/svg" xmlns:xlink="http://www.w3.org/1999/xlink" width="307" height="120" viewBox="0 0 307 120">
  <defs>
    <clipPath id="clip-path">
      <rect id="Rectangle_7" data-name="Rectangle 7" width="120" height="120" transform="translate(0 0)" fill="#175935"/>
    </clipPath>
  </defs>
  <g id="logo-aie-green" transform="translate(-119 -18.15)">
    <g id="Mask_Group_1" data-name="Mask Group 1" transform="translate(119 18.15)" clip-path="url(#clip-path)">
      <g id="icon-aei" transform="translate(0.02 0.579)">
        <path id="Path_495" data-name="Path 495" d="M0,0,33.946,32.323S46.688,43.6,53,52.51c2.515,3.56,5.376,6.961,6.756,13.348s.676,8.8-.692,13.917C57.183,86.813,52.693,96.54,42.2,101.347,24.422,109.5,5.8,96.8,5.8,96.8s3.412,9.126,8.359,13.546,10.9,2.089,13.332,4.762S23.9,121.04,23.9,121.04H0Z" transform="translate(60.498)" fill="#175935"/>
        <path id="Path_496" data-name="Path 496" d="M60.5,0,26.552,32.323S13.81,43.6,7.5,52.51C4.989,56.069,2.129,59.471.748,65.858s-.676,8.8.692,13.917c1.881,7.038,6.371,16.766,16.851,21.573,17.777,8.147,36.4-4.548,36.4-4.548s-3.412,9.126-8.359,13.546-10.9,2.089-13.332,4.762,3.591,5.933,3.591,5.933H60.5L63.456,58.4Z" transform="translate(0)" fill="#175935"/>
        <path id="Path_497" data-name="Path 497" d="M60.5,0,26.552,32.323S13.81,43.6,7.5,52.51C4.989,56.069,2.129,59.471.748,65.858s-.676,8.8.692,13.917c1.881,7.038,6.371,16.766,16.851,21.573,17.777,8.147,36.4-4.548,36.4-4.548S21.784,111.808,15.7,83.911,60.5,0,60.5,0Z" transform="translate(0)" fill="#175935"/>
        <path id="Path_498" data-name="Path 498" d="M0,0,33.946,32.323S46.688,43.6,53,52.51c2.515,3.56,5.376,6.961,6.756,13.348s.676,8.8-.692,13.917C57.183,86.813,52.693,96.54,42.2,101.347,24.422,109.5,5.8,96.8,5.8,96.8s32.914,15.009,38.991-12.888S0,0,0,0Z" transform="translate(60.498)" fill="#175935"/>
      </g>
    </g>
    <text id="Ace_Enterprise_Innovations" data-name="Ace
Enterprise
Innovations" transform="translate(244 59.15)" fill="#175935" font-size="39" font-family="Roboto-Regular, Roboto"><tspan x="0" y="0">Ace</tspan><tspan x="0" y="32">Enterprise</tspan><tspan x="0" y="64">Innovations</tspan></text>
  </g>
</svg>
